<?xml version="1.0" encoding="utf-8"?>
<!-- Generator: Adobe Illustrator 16.0.0, SVG Export Plug-In . SVG Version: 6.00 Build 0)  -->
<!DOCTYPE svg PUBLIC "-//W3C//DTD SVG 1.1//EN" "http://www.w3.org/Graphics/SVG/1.1/DTD/svg11.dtd">
<svg version="1.1" id="Layer_1" xmlns="http://www.w3.org/2000/svg" xmlns:xlink="http://www.w3.org/1999/xlink" x="0px" y="0px"
	 width="415px" height="92.995px" viewBox="0 0 415 92.995" style="enable-background:new 0 0 415 92.995;" xml:space="preserve">
<style type="text/css">
<![CDATA[
	.st0{fill:#FFFFFF;}
]]>
</style>
<g>
	<path class="st0" d="M44.261,9.126c17.718,0,26.373,9.164,26.373,9.164l-7.535,9.572c0,0-7.535-6.415-18.533-6.415
		c-12.524,0-23.216,9.876-23.216,24.54c0,15.782,10.793,25.458,23.726,25.458c11.507,0,18.329-7.535,18.329-7.535v-5.398
		c0-1.527-0.814-2.24-2.24-2.24h-4.379V44.97h11.711c4.887,0,6.924,2.037,6.924,6.823v30.854H64.015v-3.463
		c0-1.527,0.103-3.055,0.103-3.055h-0.204c0,0-7.738,7.738-21.282,7.738C23.691,83.868,7.5,69.409,7.5,46.089
		C7.5,25.316,23.284,9.126,44.261,9.126z"/>
	<path class="st0" d="M112.487,29.493c15.886,0,28.513,11.302,28.513,27.188c0,15.986-12.627,27.188-28.513,27.188
		c-15.783,0-28.41-11.201-28.41-27.188C84.077,40.795,96.704,29.493,112.487,29.493z M112.487,72.872
		c8.452,0,15.479-6.518,15.479-16.191c0-9.572-7.026-16.191-15.479-16.191c-8.35,0-15.376,6.62-15.376,16.191
		C97.111,66.354,104.138,72.872,112.487,72.872z"/>
	<path class="st0" d="M166.767,21.65h-11.101c-1.426,0-2.24,0.816-2.24,2.241v4.378h-11.71V16.865c0-4.786,1.629-6.517,6.517-6.517
		h50.406c4.888,0,6.517,1.73,6.517,6.517V28.27h-11.711v-4.378c0-1.425-0.814-2.241-2.239-2.241h-11.099v60.997h-13.34V21.65z"/>
	<path class="st0" d="M210.556,43.952c0-1.527-0.814-2.241-2.24-2.241h-4.074V30.713h11.813c4.581,0,6.924,1.935,6.924,6.313v3.056
		c0,1.934-0.203,3.258-0.203,3.258h0.203C225.32,35.907,231.532,30,239.475,30c1.121,0,2.343,0.205,2.343,0.205v12.729
		c0,0-1.324-0.205-3.157-0.205c-5.499,0-11.812,3.158-14.153,10.897c-0.714,2.545-1.12,5.396-1.12,8.451v20.57h-12.831V43.952z"/>
	<path class="st0" d="M275.219,50.061h1.629v-0.407c0-7.433-2.953-10.183-9.572-10.183c-2.342,0-6.924,0.611-6.924,3.463v2.749
		h-12.016v-5.498c0-9.673,13.646-10.692,19.041-10.692c17.311,0,22.403,9.063,22.403,20.67v19.348c0,1.426,0.814,2.24,2.239,2.24
		h4.074v10.896h-11.609c-4.785,0-6.618-2.648-6.618-5.701c0-1.324,0.101-2.242,0.101-2.242h-0.203c0,0-3.971,9.164-15.682,9.164
		c-9.266,0-17.718-5.805-17.718-16.189C244.364,51.385,266.766,50.061,275.219,50.061z M265.239,73.786
		c6.923,0,11.813-7.33,11.813-13.643v-1.223h-2.241c-6.72,0-17.413,0.916-17.413,8.145
		C257.397,70.528,259.943,73.786,265.239,73.786z"/>
	<path class="st0" d="M329.701,29.493c6.721,0,18.837,2.749,18.837,11.71v6.109h-11.404v-2.851c0-2.852-4.277-4.074-7.433-4.074
		c-8.961,0-15.377,6.824-15.377,16.192c0,10.59,7.84,15.986,16.19,15.986c8.859,0,15.376-7.025,15.376-7.025l5.397,8.959
		c0,0-7.739,9.369-21.894,9.369c-17.106,0-28.105-12.117-28.105-27.188C301.289,42.017,311.881,29.493,329.701,29.493z"/>
	<path class="st0" d="M360.557,23.586c0-1.527-0.814-2.241-2.239-2.241h-4.074V10.349h12.322c4.786,0,6.925,1.12,6.925,5.905v32.789
		h3.869c1.629,0,3.768-0.306,4.888-1.934l10.59-16.396h14.358L394.06,50.266c-2.241,3.258-3.87,4.072-3.87,4.072v0.205
		c0,0,1.833,0.712,3.665,4.071l5.907,11.201c0.815,1.529,1.833,1.936,4.276,1.936h3.462v10.896h-9.57
		c-4.38,0-6.111-0.715-8.147-4.482l-8.655-16.291c-1.019-1.834-3.157-1.934-4.785-1.934h-2.852v22.707h-12.934V23.586z"/>
</g>
</svg>
